HIERARCHY
ROOT Hips
{
	OFFSET 0.000000 0.000000 0.000000 
	CHANNELS 6 Xposition Yposition Zposition Zrotation Yrotation Xrotation
	JOINT LeftUpLeg
	{
		OFFSET 1.363060 -1.794630 0.839290 
		CHANNELS 3 Zrotation Yrotation Xrotation
		JOINT LeftLeg
		{
			OFFSET 2.448110 -6.726130 0.000000 
			CHANNELS 3 Zrotation Yrotation Xrotation
			JOINT LeftFoot
			{
				OFFSET 2.562200 -7.039590 0.000000 
				CHANNELS 3 Zrotation Yrotation Xrotation
				JOINT LeftToeBase
				{
					OFFSET 0.157640 -0.433110 2.322550 
					CHANNELS 3 Zrotation Yrotation Xrotation
					End Site
					{
						OFFSET 0.000000 0.000000 0.000000 
					}
				}
			}
		}
	}
	JOINT RightUpLeg
	{
		OFFSET -1.305520 -1.794630 0.839290 
		CHANNELS 3 Zrotation Yrotation Xrotation
		JOINT RightLeg
		{
			OFFSET -2.542530 -6.985550 0.000000 
			CHANNELS 3 Zrotation Yrotation Xrotation
			JOINT RightFoot
			{
				OFFSET -2.568260 -7.056230 0.000000 
				CHANNELS 3 Zrotation Yrotation Xrotation
				JOINT RightToeBase
				{
					OFFSET -0.164730 -0.452590 2.363150 
					CHANNELS 3 Zrotation Yrotation Xrotation
					End Site
					{
						OFFSET 0.000000 0.000000 0.000000 
					}
				}
			}
		}
	}
	JOINT Spine
	{
		OFFSET 0.028270 2.035590 -0.193380 
		CHANNELS 3 Zrotation Yrotation Xrotation
		JOINT Spine1
		{
			OFFSET 0.056720 2.048850 -0.042750 
			CHANNELS 3 Zrotation Yrotation Xrotation
			JOINT Neck1
			{
				OFFSET -0.054170 1.746240 0.172020 
				CHANNELS 3 Zrotation Yrotation Xrotation
				JOINT Head
				{
					OFFSET 0.104070 1.761360 -0.123970 
					CHANNELS 3 Zrotation Yrotation Xrotation
					End Site
					{
						OFFSET 0.000000 0.000000 0.000000 
					}
				}
			}
			JOINT LeftArm
			{
				OFFSET 3.362410 1.200890 -0.311210 
				CHANNELS 3 Zrotation Yrotation Xrotation
				JOINT LeftForeArm
				{
					OFFSET 4.983000 -0.000000 -0.000000 
					CHANNELS 3 Zrotation Yrotation Xrotation
					JOINT LeftHand
					{
						OFFSET 3.483560 -0.000000 -0.000000 
						CHANNELS 3 Zrotation Yrotation Xrotation
						JOINT LeftHandIndex1
						{
							OFFSET 0.715260 -0.000000 -0.000000 
							CHANNELS 3 Zrotation Yrotation Xrotation
							End Site
							{
								OFFSET 0.000000 0.000000 0.000000 
							}
						}
					}
				}
			}
			JOINT RightArm
			{
				OFFSET -3.136600 1.374050 -0.404650 
				CHANNELS 3 Zrotation Yrotation Xrotation
				JOINT RightForeArm
				{
					OFFSET -5.241900 -0.000000 -0.000000 
					CHANNELS 3 Zrotation Yrotation Xrotation
					JOINT RightHand
					{
						OFFSET -3.444170 -0.000000 -0.000000 
						CHANNELS 3 Zrotation Yrotation Xrotation
						JOINT RightHandIndex1
						{
							OFFSET -0.622530 -0.000000 -0.000000 
							CHANNELS 3 Zrotation Yrotation Xrotation
							End Site
							{
								OFFSET 0.000000 0.000000 0.000000 
							}
						}
					}
				}
			}
		}
	}
}
MOTION
Frames: 12
Frame Time: 0.041667
15.001522 17.042627 -2.589222 114.173645 80.276646 110.334721 -26.297979 -2.005356 -13.336426 1.119592 15.042546 38.394005 1.402982 -0.812582 -2.036868 0.002300 0.311900 0.857000 -0.713916 -9.052806 -5.225700 -9.131009 -18.146426 57.384664 -40.102163 6.914374 174.096496 -0.922700 -6.119800 17.132300 -0.248275 -0.317514 -2.900295 -1.073806 0.015809 1.794420 7.193842 -1.503780 2.294379 1.086100 -0.396100 9.451300 -73.859395 9.892065 56.886276 86.562427 -59.624348 -61.373490 -2.215927 0.334477 -19.712024 -7.125000 0.000000 0.000000 81.877739 -25.749900 49.097780 -110.298809 55.312193 -75.373195 2.369553 0.336626 -19.862416 7.125000 0.000000 0.000000 
15.454737 17.043391 -2.602218 113.068285 79.659151 109.268046 -27.230008 -1.469390 -11.893260 1.155816 15.058384 38.445779 1.659967 -1.457270 -3.542109 0.001200 0.220900 0.606800 -1.139984 -8.164125 -8.154325 -8.741846 -17.825779 55.970478 -40.034267 5.746399 174.835732 -0.993200 -6.342600 17.781900 -0.250279 -0.564979 -2.878439 -0.628327 -0.153122 1.852990 7.411372 -1.460188 2.236241 1.244600 -0.352400 9.340300 -74.645667 6.996986 56.459086 87.267967 -59.544932 -61.926018 -2.224184 0.419380 -19.328531 -7.125000 0.000000 0.000000 81.743505 -27.364452 48.795354 -108.361089 55.865643 -73.538694 2.379773 0.299662 -20.991564 7.125000 0.000000 0.000000 
15.916906 17.055295 -2.605931 114.291192 79.573009 110.532373 -27.324343 -1.223531 -10.334759 1.212229 15.053757 38.508108 1.947106 -2.135659 -4.888226 0.000200 0.079400 0.218100 -0.731029 -7.583957 -11.000185 -8.538112 -17.694426 55.292588 -39.991552 5.155262 174.350838 -0.612700 -5.009800 13.936600 -0.215739 -0.842590 -2.871856 -0.251511 -0.332248 1.840810 7.741535 -1.450994 2.167769 1.543900 -0.310000 9.228600 -75.570237 4.167268 55.944014 88.607381 -59.490481 -63.031613 -2.206764 0.494431 -18.665348 -7.125000 0.000000 0.000000 81.734008 -29.254089 48.390233 -107.115882 56.222485 -72.434949 2.381099 0.364546 -21.973613 7.125000 0.000000 0.000000 
16.405723 17.096685 -2.610627 113.162470 79.458408 109.307705 -27.612192 -0.630500 -8.433302 1.138245 14.881342 38.037192 2.241666 -2.817369 -6.131928 0.000300 0.109900 0.302000 -0.495062 -6.527784 -13.128416 -8.610097 -17.744333 55.455953 -39.919710 2.988691 175.759336 -0.895600 -6.031600 16.876200 -0.188596 -0.949804 -2.857743 0.120544 -0.435733 1.904695 7.673585 -1.276769 2.267299 1.434600 -0.241200 9.277200 -76.568284 1.611889 55.237444 89.933257 -59.433305 -64.130771 -2.166739 0.630639 -17.283435 -7.125000 0.000000 0.000000 81.735201 -31.216701 48.068816 -106.340402 56.469693 -71.764775 2.362617 0.404603 -22.539608 7.125000 0.000000 0.000000 
16.875210 17.142116 -2.607241 114.342088 79.135383 110.798314 -27.839665 -0.568850 -6.749567 0.993834 14.660782 37.363163 2.459769 -3.334202 -6.926693 -0.000000 0.041800 0.114800 -0.290053 -6.199638 -16.002201 -8.720957 -17.761725 55.706908 -39.894253 2.256397 176.005408 -0.829900 -5.812000 16.239900 -0.134447 -1.349723 -2.894225 0.633906 -0.690064 1.900280 7.704571 -1.124937 2.308734 1.425000 -0.173800 9.320700 -77.642929 -0.725758 54.466272 91.568838 -59.362884 -65.497951 -2.103935 0.755284 -15.523264 -7.125000 0.000000 0.000000 81.611835 -33.096967 47.913215 -105.877868 56.638035 -71.360692 2.338104 0.382272 -22.903294 7.125000 0.000000 0.000000 
17.354854 17.200324 -2.606149 115.372109 78.992423 112.275284 -27.794731 -0.380232 -4.979974 0.696189 14.236310 36.083824 2.596753 -3.667797 -7.134364 0.000900 0.195300 0.536600 0.055995 -5.733905 -18.779811 -9.002943 -17.911995 56.567121 -39.882309 2.213503 175.535672 -0.570800 -4.838600 13.448800 -0.075391 -1.721348 -2.950016 1.063518 -0.922945 1.890923 7.703174 -0.937191 2.444546 1.403500 -0.092000 9.399600 -78.743610 -2.817946 53.740050 93.487669 -59.280452 -67.096576 -2.078895 0.919505 -14.235766 -7.125000 0.000000 0.000000 81.377633 -35.159661 47.882103 -105.682102 56.750791 -71.217635 2.310029 0.380184 -23.063487 7.125000 0.000000 0.000000 
17.847056 17.272183 -2.602873 118.789178 78.840119 116.074201 -27.450250 -0.635181 -2.776201 0.292631 13.653226 34.353268 2.768612 -4.179304 -6.791020 0.011000 0.677500 1.861900 0.642624 -5.827653 -21.268316 -9.542342 -18.196313 58.232665 -39.879708 2.414559 175.283641 -0.471800 -4.405200 12.219600 0.012147 -2.270503 -3.005296 1.407543 -1.238160 1.891833 7.611562 -0.661082 2.578503 1.291900 0.019800 9.402500 -79.799130 -4.515312 53.217940 95.133782 -59.189678 -68.454629 -2.058582 1.050266 -12.378894 -7.125000 0.000000 0.000000 81.092597 -37.132508 47.922146 -105.429845 56.877664 -71.047174 2.275441 0.437882 -23.198799 7.125000 0.000000 0.000000 
18.327354 17.356382 -2.585509 122.285131 79.002375 120.056784 -26.517077 -0.982756 -0.772917 -0.124187 13.000415 32.521642 2.791989 -4.260047 -6.019295 0.013400 0.748100 2.055900 1.804227 -5.739641 -24.042369 -10.105212 -18.533136 60.044052 -39.872809 2.534475 174.759754 -0.471600 -4.404600 12.218000 0.121917 -2.734364 -3.079303 1.759511 -1.511175 1.755909 7.474199 -0.395810 2.670048 1.127300 0.119100 9.405600 -80.822200 -5.857269 52.740707 97.381216 -59.044218 -70.305040 -2.042381 1.151064 -10.876787 -7.125000 0.000000 0.000000 80.824896 -38.883205 47.938374 -105.179931 56.974813 -70.901463 2.239243 0.488621 -23.379358 7.125000 0.000000 0.000000 
18.839433 17.461441 -2.577209 123.082758 79.038726 121.127052 -26.209070 -1.079231 1.615582 -0.574377 12.249605 30.454118 2.575419 -3.706953 -5.144395 0.003000 0.356500 0.979500 2.499927 -5.201632 -26.118702 -10.908593 -18.973237 62.553864 -39.864418 2.685732 173.807071 -0.375000 -3.932900 10.888000 0.194910 -3.036805 -3.145473 2.162979 -1.698888 1.606960 7.355456 -0.134281 2.832608 1.000400 0.217900 9.458600 -81.789028 -6.841350 52.446328 99.699410 -58.851654 -72.192141 -2.031360 1.228639 -9.864664 -7.125000 0.000000 0.000000 80.325224 -40.836148 48.253246 -105.165309 57.018099 -70.975015 2.216208 0.477356 -23.640341 7.125000 0.000000 0.000000 
19.377502 17.576001 -2.590969 122.885657 78.291126 121.025172 -27.170190 -1.255367 4.473883 -1.016835 11.479984 28.315705 2.239124 -2.923192 -4.233304 0.010200 -0.651400 -1.790100 2.042934 -4.985188 -27.412024 -12.060820 -19.404825 65.907735 -39.868855 3.097691 173.010820 -0.295300 -3.494400 9.658300 0.231768 -3.559790 -3.214369 2.620225 -1.983667 1.505202 7.301026 0.284345 3.043994 0.951400 0.401100 9.523300 -82.598738 -7.554750 52.208774 101.804828 -58.635048 -73.899464 -2.046666 1.281563 -9.650554 -7.125000 0.000000 0.000000 79.518046 -42.842673 48.971078 -105.182038 57.062651 -71.070735 2.185652 0.469972 -24.154434 7.125000 0.000000 0.000000 
19.935885 17.712729 -2.625152 121.148198 77.645267 119.278018 -28.295937 -0.835165 7.353146 -1.425321 10.615949 26.007399 1.844669 -1.985104 -2.902642 0.082000 -1.847200 -5.083600 1.343702 -4.468384 -27.989130 -13.495139 -19.889339 70.065674 -39.887185 3.721601 172.328368 -0.254100 -3.243300 8.957000 0.250279 -3.976469 -3.259784 2.988243 -2.212269 1.514282 7.242295 0.818989 3.250969 0.920500 0.640200 9.566100 -83.378452 -7.915361 51.963752 104.279864 -58.352166 -75.900917 -2.081246 1.325238 -10.116664 -7.125000 0.000000 0.000000 78.511178 -44.669472 49.897185 -105.279184 57.102852 -71.241595 2.141780 0.511866 -24.834669 7.125000 0.000000 0.000000 
20.471552 17.852079 -2.645355 121.790851 77.184905 120.085451 -28.542895 -0.661205 9.809020 -1.755566 9.791659 23.920067 1.572929 -1.350326 -0.672561 0.153100 -2.521400 -6.949100 1.256339 -4.302216 -28.825769 -15.030376 -20.319289 74.535636 -39.938595 5.163788 171.022309 -0.223200 -3.040900 8.392600 0.304765 -4.515567 -3.340957 3.318490 -2.490850 1.343453 7.202430 1.186447 3.426571 0.896900 0.803200 9.626400 -84.041092 -8.011908 51.855710 107.116571 -57.933215 -78.191687 -2.132711 1.359393 -10.770284 -7.125000 0.000000 0.000000 77.660551 -46.415864 50.713004 -105.546922 57.074177 -71.569980 2.103663 0.539464 -25.178862 7.125000 0.000000 0.000000 
